<?xml version="1.0"?><svg width="200" height="200" xmlns="http://www.w3.org/2000/svg" xmlns:xlink="http://www.w3.org/1999/xlink">
 <title>$45 Red Star Price Tag</title>
 <defs>
  <linearGradient id="linearGradient7317" x1="0.508149" y1="-0.585439" x2="0.508149" y2="1.46566" xlink:href="#linearGradient6394"/>
  <linearGradient id="linearGradient7281">
   <stop id="stop7283" stop-color="#ff0000" offset="0"/>
   <stop id="stop7289" stop-color="#6d1313" offset="0.858974"/>
   <stop id="stop7285" stop-color="#cb0c0c" offset="1"/>
  </linearGradient>
  <linearGradient id="linearGradient7315" x1="0.500001" y1="0" x2="0.500001" y2="1" xlink:href="#linearGradient7281"/>
  <linearGradient id="linearGradient6394">
   <stop id="stop6396" stop-color="#ffffff" offset="0"/>
   <stop id="stop6398" stop-color="#ffffff" stop-opacity="0" offset="1"/>
  </linearGradient>
 </defs>
 <metadata id="metadata7346">image/svg+xml</metadata>
 <g>
  <title>Layer 1</title>
  <g id="layer1">
   <g id="g7311">
    <path id="path7271" fill="url(#linearGradient7315)" fill-rule="nonzero" marker-end="none" marker-mid="none" marker-start="none" d="m172.188004,149.714996l-20.362,-3.074997l5.388992,19.876007l-18.957993,-8.042999l0.278,20.591995l-16.363007,-12.505005l-4.851997,20.014008l-12.737999,-16.181l-9.677399,18.177994l-8.314201,-18.841003l-13.893799,15.201004l-3.3675,-20.317001l-17.237503,11.268005l1.790802,-20.514999l-19.4981,6.625992l6.836498,-19.425003l-20.533598,1.570007l11.4527,-17.115997l-20.2789,-3.586006l15.3493,-13.728996l-18.749961,-8.515999l18.28136,-9.4813l-16.042899,-12.911804l20.0647,-4.636597l-12.327801,-16.496002l20.587502,0.4991l-7.8381,-19.043499l19.816498,5.603302l-2.8559,-20.394501l17.800499,10.355301l2.305603,-20.464002l14.666,14.456901l7.322502,-19.247661l10.609695,17.649859l11.878998,-16.821899l5.888,19.7341l15.689003,-13.3393l0.794998,20.578091l18.513,-9.018391l-4.347992,20.129299l20.174988,-4.130898l-9.216995,18.4156l20.568008,1.01619l-13.507004,15.5448l19.669998,6.099411l-16.949005,11.697189l17.533997,10.799698l-19.324997,7.114014l14.298004,14.820992l-20.488007,2.085007l10.16301,17.910995z"/>
    <path id="path7273" fill="url(#linearGradient7317)" fill-rule="nonzero" marker-end="none" marker-mid="none" marker-start="none" d="m91.4608,21.8692c-1.854599,0.129 -3.464897,1.3246 -4.125,3.0625l-1.8125,4.75c-0.330299,0.8636 -1.096199,1.4834 -2.031303,1.6875c-0.935097,0.2041 -1.833595,-0.065199 -2.5,-0.7188l-3.625,-3.5625c-1.300797,-1.288601 -3.224693,-1.718201 -4.950195,-1.1054c-1.725403,0.6129 -2.947205,2.16 -3.1436,3.9804l-0.5625,5.031301c-0.108299,0.952599 -0.626999,1.734299 -1.468704,2.1563c-0.841698,0.421898 -1.8591,0.371098 -2.656296,-0.0938c-0.010399,0 -0.020798,0 -0.031204,0l-4.437496,-2.5625c-1.576,-0.903801 -3.528801,-0.833103 -5.035301,0.1824c-1.5065,1.0154 -2.304798,2.798897 -2.058399,4.5989l0.7187,5.0625c0.127998,0.9212 -0.216301,1.842098 -0.9375,2.4687c-0.7211,0.626598 -1.659599,0.8204 -2.5625,0.5625c-0.010399,0 -0.020802,0 -0.0312,0l-4.875,-1.375c-1.754799,-0.489101 -3.634998,0.064598 -4.844501,1.426899c-1.2094,1.362301 -1.536598,3.2948 -0.842999,4.979401l1.9375,4.6875c0.359901,0.871998 0.243999,1.892399 -0.2813,2.6562c-0.525299,0.763897 -1.386402,1.211899 -2.3437,1.1875l-5.0938,-0.125c-1.816101,-0.038303 -3.496101,0.958797 -4.332201,2.5714c-0.836199,1.612598 -0.6831,3.5602 0.394701,5.022396l3.0625,4.093704c0.562599,0.754601 0.700199,1.7071 0.375,2.593796c-0.325199,0.886604 -1.057201,1.539299 -1.9687,1.75l-2.0625,0.468704c-2.1565,0.4981 -3.686399,2.415001 -3.6938,4.628197c-0.0075,2.213303 1.509501,4.140404 3.6625,4.653099c49.886196,11.8582 96.201488,10.861305 135.781498,4.1875c2.072006,-0.360794 3.662003,-2.036896 3.914001,-4.124794c0.251999,-2.088005 -0.893997,-4.094406 -2.820007,-4.937706c-0.83699,-0.360695 -1.400986,-1.064796 -1.593994,-1.906296c-0.192993,-0.841499 0.013,-1.765205 0.593994,-2.4375l3.343002,-3.843704c1.19101,-1.379494 1.491013,-3.317101 0.77301,-4.991898c-0.718002,-1.674797 -2.328003,-2.7938 -4.14801,-2.883102l-5.093002,-0.25c-0.94899,-0.045197 -1.781998,-0.572899 -2.25,-1.375c-0.468994,-0.802197 -0.520996,-1.806496 -0.093994,-2.656296l2.281006,-4.5625c0.804001,-1.6301 0.612,-3.575703 -0.497009,-5.016201c-1.108994,-1.440502 -2.940002,-2.125202 -4.722,-1.764999l-4.968002,1.0312c-0.905991,0.1852 -1.868988,-0.111103 -2.531998,-0.7812c-0.662994,-0.6702 -0.919998,-1.597202 -0.718002,-2.5313l1.062012,-4.9375c0.380997,-1.783001 -0.28801,-3.6273 -1.723999,-4.750801c-1.436005,-1.123501 -3.387009,-1.329502 -5.026001,-0.530399l-4.562012,2.2187c-0.839996,0.411098 -1.838989,0.3652 -2.656998,-0.125c-0.817993,-0.4902 -1.309998,-1.307602 -1.343002,-2.25c0,-0.010403 0,-0.020901 0,-0.0312l-0.187988,-5.0625c-0.076004,-1.819002 -1.182007,-3.435801 -2.848999,-4.166601c-1.668007,-0.730801 -3.606003,-0.4478 -4.995003,0.729l-3.875,3.281301c-0.704002,0.597698 -1.687004,0.800697 -2.593002,0.5313c-0.906998,-0.269501 -1.571999,-0.962801 -1.844002,-1.875101l-1.469009,-4.9062c-0.522987,-1.7507 -2,-3.048599 -3.802986,-3.3414c-1.804001,-0.2929 -3.616005,0.471001 -4.666,1.9664l-2.937004,4.1875c-0.542999,0.770401 -1.396996,1.2227 -2.344009,1.1875c-0.946991,-0.0352 -1.799591,-0.5389 -2.281189,-1.3438l-2.593811,-4.3437c-0.9179,-1.537199 -2.619789,-2.430399 -4.406189,-2.3125l0,0z"/>
   </g>
  </g>
 </g>
</svg>